<svg xmlns="http://www.w3.org/2000/svg" xmlns:xlink="http://www.w3.org/1999/xlink" width="500" zoomAndPan="magnify" viewBox="0 0 375 374.999991" height="500" preserveAspectRatio="xMidYMid meet" version="1.0"><defs><g/></defs><rect x="-37.5" width="450" fill="#ffffff" y="-37.499999" height="449.999989" fill-opacity="1"/><rect x="-37.5" width="450" fill="#ffffff" y="-37.499999" height="449.999989" fill-opacity="1"/><path fill="#ffffff" d="M 170.253906 149.585938 L 166.214844 149.585938 L 166.214844 179.78125 L 164.410156 177.976562 L 153.15625 189.230469 L 153.15625 204.992188 L 170.246094 204.992188 Z M 166.214844 200.964844 L 157.195312 200.964844 L 157.195312 190.902344 L 166.203125 181.890625 Z M 166.214844 200.964844 " fill-opacity="1" fill-rule="nonzero"/><path fill="#ffffff" d="M 223.515625 189.226562 L 212.261719 177.972656 L 210.460938 179.777344 L 210.460938 149.582031 L 206.429688 149.582031 L 206.429688 204.992188 L 223.515625 204.992188 Z M 219.476562 200.964844 L 210.46875 200.964844 L 210.46875 181.890625 L 219.476562 190.902344 Z M 219.476562 200.964844 " fill-opacity="1" fill-rule="nonzero"/><path fill="#ffffff" d="M 190.359375 205 L 200.480469 205 L 200.480469 131.34375 L 196.441406 131.34375 L 196.441406 200.960938 L 190.359375 200.960938 L 190.359375 118.691406 L 186.320312 118.691406 L 186.320312 200.960938 L 180.242188 200.960938 L 180.242188 131.34375 L 176.199219 131.34375 L 176.199219 205 Z M 190.359375 205 " fill-opacity="1" fill-rule="nonzero"/><path fill="#ffffff" d="M 142.136719 209.617188 L 233.75 209.617188 L 233.75 213.652344 L 142.136719 213.652344 Z M 142.136719 209.617188 " fill-opacity="1" fill-rule="nonzero"/><path fill="#ffffff" d="M 155.585938 215.875 L 221.097656 215.875 L 221.097656 219.914062 L 155.585938 219.914062 Z M 155.585938 215.875 " fill-opacity="1" fill-rule="nonzero"/><g fill="#ffffff" fill-opacity="1"><g transform="translate(54.955611, 254.36928)"><g><path d="M 6.734375 0 L 3.3125 0 C 2.84375 0 2.609375 -0.234375 2.609375 -0.703125 L 2.609375 -25.703125 C 2.609375 -26.171875 2.84375 -26.40625 3.3125 -26.40625 L 6.734375 -26.40625 C 7.203125 -26.40625 7.4375 -26.171875 7.4375 -25.703125 L 7.4375 -0.703125 C 7.4375 -0.234375 7.203125 0 6.734375 0 Z M 6.734375 0 "/></g></g></g><g fill="#ffffff" fill-opacity="1"><g transform="translate(65.187212, 254.36928)"><g><path d="M 23.046875 -18.578125 C 24.066406 -18.578125 24.976562 -18.398438 25.78125 -18.046875 C 26.59375 -17.691406 27.285156 -17.191406 27.859375 -16.546875 C 28.429688 -15.910156 28.867188 -15.164062 29.171875 -14.3125 C 29.484375 -13.457031 29.640625 -12.535156 29.640625 -11.546875 L 29.640625 -0.703125 C 29.640625 -0.234375 29.398438 0 28.921875 0 L 25.90625 0 C 25.4375 0 25.203125 -0.234375 25.203125 -0.703125 L 25.203125 -10.8125 C 25.203125 -11.550781 25.078125 -12.210938 24.828125 -12.796875 C 24.578125 -13.390625 24.210938 -13.851562 23.734375 -14.1875 C 23.253906 -14.53125 22.648438 -14.703125 21.921875 -14.703125 C 21.191406 -14.703125 20.550781 -14.535156 20 -14.203125 C 19.445312 -13.878906 19.015625 -13.429688 18.703125 -12.859375 C 18.390625 -12.285156 18.234375 -11.625 18.234375 -10.875 L 18.234375 -0.703125 C 18.234375 -0.234375 18 0 17.53125 0 L 14.5 0 C 14.03125 0 13.796875 -0.234375 13.796875 -0.703125 L 13.796875 -10.8125 C 13.796875 -11.550781 13.675781 -12.210938 13.4375 -12.796875 C 13.195312 -13.390625 12.832031 -13.851562 12.34375 -14.1875 C 11.851562 -14.53125 11.226562 -14.703125 10.46875 -14.703125 C 9.738281 -14.703125 9.09375 -14.535156 8.53125 -14.203125 C 7.976562 -13.878906 7.550781 -13.429688 7.25 -12.859375 C 6.945312 -12.285156 6.796875 -11.625 6.796875 -10.875 L 6.796875 -0.703125 C 6.796875 -0.234375 6.554688 0 6.078125 0 L 3.0625 0 C 2.59375 0 2.359375 -0.234375 2.359375 -0.703125 L 2.359375 -17.5 C 2.359375 -17.96875 2.59375 -18.203125 3.0625 -18.203125 L 4.96875 -18.203125 C 5.382812 -18.203125 5.640625 -17.992188 5.734375 -17.578125 L 6.125 -16.125 C 7.03125 -17.03125 7.953125 -17.664062 8.890625 -18.03125 C 9.835938 -18.394531 10.769531 -18.578125 11.6875 -18.578125 C 12.78125 -18.578125 13.78125 -18.320312 14.6875 -17.8125 C 15.59375 -17.3125 16.3125 -16.609375 16.84375 -15.703125 C 17.351562 -16.328125 17.941406 -16.851562 18.609375 -17.28125 C 19.273438 -17.707031 19.988281 -18.03125 20.75 -18.25 C 21.519531 -18.46875 22.285156 -18.578125 23.046875 -18.578125 Z M 23.046875 -18.578125 "/></g></g></g><g fill="#ffffff" fill-opacity="1"><g transform="translate(97.162929, 254.36928)"><g><path d="M 23.046875 -18.578125 C 24.066406 -18.578125 24.976562 -18.398438 25.78125 -18.046875 C 26.59375 -17.691406 27.285156 -17.191406 27.859375 -16.546875 C 28.429688 -15.910156 28.867188 -15.164062 29.171875 -14.3125 C 29.484375 -13.457031 29.640625 -12.535156 29.640625 -11.546875 L 29.640625 -0.703125 C 29.640625 -0.234375 29.398438 0 28.921875 0 L 25.90625 0 C 25.4375 0 25.203125 -0.234375 25.203125 -0.703125 L 25.203125 -10.8125 C 25.203125 -11.550781 25.078125 -12.210938 24.828125 -12.796875 C 24.578125 -13.390625 24.210938 -13.851562 23.734375 -14.1875 C 23.253906 -14.53125 22.648438 -14.703125 21.921875 -14.703125 C 21.191406 -14.703125 20.550781 -14.535156 20 -14.203125 C 19.445312 -13.878906 19.015625 -13.429688 18.703125 -12.859375 C 18.390625 -12.285156 18.234375 -11.625 18.234375 -10.875 L 18.234375 -0.703125 C 18.234375 -0.234375 18 0 17.53125 0 L 14.5 0 C 14.03125 0 13.796875 -0.234375 13.796875 -0.703125 L 13.796875 -10.8125 C 13.796875 -11.550781 13.675781 -12.210938 13.4375 -12.796875 C 13.195312 -13.390625 12.832031 -13.851562 12.34375 -14.1875 C 11.851562 -14.53125 11.226562 -14.703125 10.46875 -14.703125 C 9.738281 -14.703125 9.09375 -14.535156 8.53125 -14.203125 C 7.976562 -13.878906 7.550781 -13.429688 7.25 -12.859375 C 6.945312 -12.285156 6.796875 -11.625 6.796875 -10.875 L 6.796875 -0.703125 C 6.796875 -0.234375 6.554688 0 6.078125 0 L 3.0625 0 C 2.59375 0 2.359375 -0.234375 2.359375 -0.703125 L 2.359375 -17.5 C 2.359375 -17.96875 2.59375 -18.203125 3.0625 -18.203125 L 4.96875 -18.203125 C 5.382812 -18.203125 5.640625 -17.992188 5.734375 -17.578125 L 6.125 -16.125 C 7.03125 -17.03125 7.953125 -17.664062 8.890625 -18.03125 C 9.835938 -18.394531 10.769531 -18.578125 11.6875 -18.578125 C 12.78125 -18.578125 13.78125 -18.320312 14.6875 -17.8125 C 15.59375 -17.3125 16.3125 -16.609375 16.84375 -15.703125 C 17.351562 -16.328125 17.941406 -16.851562 18.609375 -17.28125 C 19.273438 -17.707031 19.988281 -18.03125 20.75 -18.25 C 21.519531 -18.46875 22.285156 -18.578125 23.046875 -18.578125 Z M 23.046875 -18.578125 "/></g></g></g><g fill="#ffffff" fill-opacity="1"><g transform="translate(129.138647, 254.36928)"><g><path d="M 11.265625 0.390625 C 9.867188 0.390625 8.582031 0.160156 7.40625 -0.296875 C 6.226562 -0.765625 5.195312 -1.421875 4.3125 -2.265625 C 3.425781 -3.109375 2.738281 -4.109375 2.25 -5.265625 C 1.757812 -6.429688 1.515625 -7.707031 1.515625 -9.09375 C 1.515625 -10.488281 1.757812 -11.765625 2.25 -12.921875 C 2.738281 -14.078125 3.425781 -15.078125 4.3125 -15.921875 C 5.195312 -16.773438 6.226562 -17.429688 7.40625 -17.890625 C 8.582031 -18.347656 9.867188 -18.578125 11.265625 -18.578125 C 12.660156 -18.578125 13.953125 -18.347656 15.140625 -17.890625 C 16.335938 -17.429688 17.375 -16.773438 18.25 -15.921875 C 19.132812 -15.078125 19.820312 -14.078125 20.3125 -12.921875 C 20.8125 -11.765625 21.0625 -10.488281 21.0625 -9.09375 C 21.0625 -7.707031 20.8125 -6.429688 20.3125 -5.265625 C 19.820312 -4.109375 19.132812 -3.109375 18.25 -2.265625 C 17.375 -1.421875 16.335938 -0.765625 15.140625 -0.296875 C 13.953125 0.160156 12.660156 0.390625 11.265625 0.390625 Z M 11.265625 -3.578125 C 12.316406 -3.578125 13.242188 -3.8125 14.046875 -4.28125 C 14.859375 -4.757812 15.492188 -5.414062 15.953125 -6.25 C 16.410156 -7.082031 16.640625 -8.03125 16.640625 -9.09375 C 16.640625 -10.164062 16.410156 -11.117188 15.953125 -11.953125 C 15.492188 -12.785156 14.859375 -13.4375 14.046875 -13.90625 C 13.242188 -14.382812 12.316406 -14.625 11.265625 -14.625 C 10.242188 -14.625 9.328125 -14.382812 8.515625 -13.90625 C 7.710938 -13.4375 7.082031 -12.785156 6.625 -11.953125 C 6.164062 -11.117188 5.9375 -10.164062 5.9375 -9.09375 C 5.9375 -8.03125 6.164062 -7.082031 6.625 -6.25 C 7.082031 -5.414062 7.710938 -4.757812 8.515625 -4.28125 C 9.328125 -3.8125 10.242188 -3.578125 11.265625 -3.578125 Z M 11.265625 -3.578125 "/></g></g></g><g fill="#ffffff" fill-opacity="1"><g transform="translate(151.901047, 254.36928)"><g><path d="M 10.1875 -7.359375 L 1.640625 -7.359375 C 1.160156 -7.359375 0.921875 -7.59375 0.921875 -8.0625 L 0.921875 -10.171875 C 0.921875 -10.640625 1.160156 -10.875 1.640625 -10.875 L 10.1875 -10.875 C 10.65625 -10.875 10.890625 -10.640625 10.890625 -10.171875 L 10.890625 -8.0625 C 10.890625 -7.59375 10.65625 -7.359375 10.1875 -7.359375 Z M 10.1875 -7.359375 "/></g></g></g><g fill="#ffffff" fill-opacity="1"><g transform="translate(163.903118, 254.36928)"><g><path d="M 17.546875 0 L 3.3125 0 C 2.84375 0 2.609375 -0.234375 2.609375 -0.703125 L 2.609375 -25.703125 C 2.609375 -26.171875 2.84375 -26.40625 3.3125 -26.40625 L 17.546875 -26.40625 C 18.015625 -26.40625 18.25 -26.171875 18.25 -25.703125 L 18.25 -22.828125 C 18.25 -22.359375 18.015625 -22.125 17.546875 -22.125 L 7.4375 -22.125 L 7.4375 -12.78125 L 16.171875 -12.78125 C 16.640625 -12.78125 16.875 -12.546875 16.875 -12.078125 L 16.875 -9.40625 C 16.875 -8.9375 16.640625 -8.703125 16.171875 -8.703125 L 7.4375 -8.703125 L 7.4375 -4.28125 L 17.546875 -4.28125 C 18.015625 -4.28125 18.25 -4.046875 18.25 -3.578125 L 18.25 -0.703125 C 18.25 -0.234375 18.015625 0 17.546875 0 Z M 17.546875 0 "/></g></g></g><g fill="#ffffff" fill-opacity="1"><g transform="translate(183.966841, 254.36928)"><g><path d="M 12.1875 -18.578125 C 13.425781 -18.578125 14.472656 -18.363281 15.328125 -17.9375 C 16.191406 -17.519531 16.882812 -16.957031 17.40625 -16.25 C 17.9375 -15.539062 18.320312 -14.75 18.5625 -13.875 C 18.800781 -13.007812 18.921875 -12.128906 18.921875 -11.234375 L 18.921875 -0.703125 C 18.921875 -0.234375 18.6875 0 18.21875 0 L 15.1875 0 C 14.71875 0 14.484375 -0.234375 14.484375 -0.703125 L 14.484375 -10.609375 C 14.484375 -11.410156 14.335938 -12.113281 14.046875 -12.71875 C 13.753906 -13.320312 13.335938 -13.796875 12.796875 -14.140625 C 12.253906 -14.492188 11.597656 -14.671875 10.828125 -14.671875 C 10.085938 -14.671875 9.410156 -14.503906 8.796875 -14.171875 C 8.179688 -13.835938 7.691406 -13.359375 7.328125 -12.734375 C 6.972656 -12.117188 6.796875 -11.375 6.796875 -10.5 L 6.796875 -0.703125 C 6.796875 -0.234375 6.554688 0 6.078125 0 L 3.0625 0 C 2.59375 0 2.359375 -0.234375 2.359375 -0.703125 L 2.359375 -17.5 C 2.359375 -17.96875 2.59375 -18.203125 3.0625 -18.203125 L 4.96875 -18.203125 C 5.382812 -18.203125 5.640625 -17.992188 5.734375 -17.578125 L 6.15625 -16 C 7.070312 -16.894531 8.050781 -17.546875 9.09375 -17.953125 C 10.144531 -18.367188 11.175781 -18.578125 12.1875 -18.578125 Z M 12.1875 -18.578125 "/></g></g></g><g fill="#ffffff" fill-opacity="1"><g transform="translate(205.233796, 254.36928)"><g><path d="M 11.34375 0.390625 C 9.957031 0.390625 8.664062 0.160156 7.46875 -0.296875 C 6.269531 -0.765625 5.226562 -1.421875 4.34375 -2.265625 C 3.457031 -3.109375 2.765625 -4.109375 2.265625 -5.265625 C 1.765625 -6.429688 1.515625 -7.707031 1.515625 -9.09375 C 1.515625 -10.488281 1.765625 -11.765625 2.265625 -12.921875 C 2.765625 -14.078125 3.457031 -15.078125 4.34375 -15.921875 C 5.226562 -16.773438 6.269531 -17.429688 7.46875 -17.890625 C 8.664062 -18.347656 9.957031 -18.578125 11.34375 -18.578125 C 12.894531 -18.578125 14.328125 -18.257812 15.640625 -17.625 C 16.953125 -17 18.039062 -16.148438 18.90625 -15.078125 C 19.039062 -14.890625 19.09375 -14.707031 19.0625 -14.53125 C 19.03125 -14.351562 18.921875 -14.203125 18.734375 -14.078125 L 16.625 -12.25 C 16.28125 -12.007812 15.953125 -12.066406 15.640625 -12.421875 C 15.160156 -13.097656 14.550781 -13.632812 13.8125 -14.03125 C 13.070312 -14.425781 12.25 -14.625 11.34375 -14.625 C 10.3125 -14.625 9.382812 -14.382812 8.5625 -13.90625 C 7.75 -13.4375 7.097656 -12.785156 6.609375 -11.953125 C 6.128906 -11.117188 5.890625 -10.164062 5.890625 -9.09375 C 5.890625 -8.03125 6.128906 -7.082031 6.609375 -6.25 C 7.097656 -5.414062 7.75 -4.757812 8.5625 -4.28125 C 9.382812 -3.8125 10.3125 -3.578125 11.34375 -3.578125 C 12.226562 -3.578125 13.046875 -3.773438 13.796875 -4.171875 C 14.546875 -4.566406 15.15625 -5.097656 15.625 -5.765625 C 15.78125 -5.929688 15.9375 -6.035156 16.09375 -6.078125 C 16.25 -6.117188 16.421875 -6.078125 16.609375 -5.953125 L 18.734375 -4.09375 C 19.109375 -3.789062 19.171875 -3.472656 18.921875 -3.140625 C 18.359375 -2.410156 17.675781 -1.78125 16.875 -1.25 C 16.082031 -0.726562 15.21875 -0.320312 14.28125 -0.03125 C 13.34375 0.25 12.363281 0.390625 11.34375 0.390625 Z M 11.34375 0.390625 "/></g></g></g><g fill="#ffffff" fill-opacity="1"><g transform="translate(225.830379, 254.36928)"><g><path d="M 6.078125 0 L 3.0625 0 C 2.59375 0 2.359375 -0.234375 2.359375 -0.703125 L 2.359375 -25.703125 C 2.359375 -26.171875 2.59375 -26.40625 3.0625 -26.40625 L 6.078125 -26.40625 C 6.554688 -26.40625 6.796875 -26.171875 6.796875 -25.703125 L 6.796875 -16.296875 C 7.460938 -17.015625 8.25 -17.570312 9.15625 -17.96875 C 10.0625 -18.375 11.070312 -18.578125 12.1875 -18.578125 C 13.425781 -18.578125 14.472656 -18.367188 15.328125 -17.953125 C 16.191406 -17.535156 16.882812 -16.96875 17.40625 -16.25 C 17.9375 -15.539062 18.320312 -14.75 18.5625 -13.875 C 18.800781 -13.007812 18.921875 -12.128906 18.921875 -11.234375 L 18.921875 -0.703125 C 18.921875 -0.234375 18.6875 0 18.21875 0 L 15.1875 0 C 14.71875 0 14.484375 -0.234375 14.484375 -0.703125 L 14.484375 -10.609375 C 14.484375 -11.421875 14.335938 -12.128906 14.046875 -12.734375 C 13.753906 -13.335938 13.335938 -13.8125 12.796875 -14.15625 C 12.253906 -14.5 11.597656 -14.671875 10.828125 -14.671875 C 10.085938 -14.671875 9.410156 -14.503906 8.796875 -14.171875 C 8.179688 -13.835938 7.691406 -13.359375 7.328125 -12.734375 C 6.972656 -12.117188 6.796875 -11.375 6.796875 -10.5 L 6.796875 -0.703125 C 6.796875 -0.234375 6.554688 0 6.078125 0 Z M 6.078125 0 "/></g></g></g><g fill="#ffffff" fill-opacity="1"><g transform="translate(247.097323, 254.36928)"><g><path d="M 8.8125 -20.328125 L 5.25 -24.859375 C 5.0625 -25.109375 5.015625 -25.3125 5.109375 -25.46875 C 5.203125 -25.625 5.390625 -25.703125 5.671875 -25.703125 L 8.5625 -25.703125 C 8.925781 -25.703125 9.210938 -25.535156 9.421875 -25.203125 L 12.1875 -20.734375 C 12.332031 -20.515625 12.359375 -20.316406 12.265625 -20.140625 C 12.171875 -19.972656 11.984375 -19.890625 11.703125 -19.890625 L 9.65625 -19.890625 C 9.3125 -19.890625 9.03125 -20.035156 8.8125 -20.328125 Z M 10.671875 -18.578125 C 11.960938 -18.578125 13.148438 -18.351562 14.234375 -17.90625 C 15.328125 -17.46875 16.269531 -16.835938 17.0625 -16.015625 C 17.863281 -15.191406 18.484375 -14.207031 18.921875 -13.0625 C 19.367188 -11.925781 19.59375 -10.660156 19.59375 -9.265625 C 19.59375 -8.953125 19.53125 -8.738281 19.40625 -8.625 C 19.28125 -8.519531 19.09375 -8.46875 18.84375 -8.46875 L 5.890625 -8.46875 C 5.941406 -7.414062 6.203125 -6.519531 6.671875 -5.78125 C 7.148438 -5.039062 7.765625 -4.476562 8.515625 -4.09375 C 9.273438 -3.71875 10.097656 -3.53125 10.984375 -3.53125 C 11.828125 -3.53125 12.664062 -3.707031 13.5 -4.0625 C 14.34375 -4.425781 15.101562 -4.957031 15.78125 -5.65625 C 16.070312 -5.9375 16.375 -5.957031 16.6875 -5.71875 L 18.375 -3.875 C 18.726562 -3.59375 18.722656 -3.269531 18.359375 -2.90625 C 17.347656 -1.84375 16.191406 -1.023438 14.890625 -0.453125 C 13.585938 0.109375 12.242188 0.390625 10.859375 0.390625 C 9.585938 0.390625 8.390625 0.171875 7.265625 -0.265625 C 6.148438 -0.703125 5.164062 -1.332031 4.3125 -2.15625 C 3.457031 -2.988281 2.785156 -3.988281 2.296875 -5.15625 C 1.804688 -6.320312 1.5625 -7.632812 1.5625 -9.09375 C 1.5625 -10.539062 1.789062 -11.84375 2.25 -13 C 2.707031 -14.164062 3.347656 -15.160156 4.171875 -15.984375 C 5.003906 -16.816406 5.972656 -17.457031 7.078125 -17.90625 C 8.179688 -18.351562 9.378906 -18.578125 10.671875 -18.578125 Z M 10.765625 -14.921875 C 10.148438 -14.921875 9.535156 -14.804688 8.921875 -14.578125 C 8.304688 -14.347656 7.753906 -13.984375 7.265625 -13.484375 C 6.773438 -12.992188 6.421875 -12.359375 6.203125 -11.578125 L 14.984375 -11.578125 C 14.816406 -12.359375 14.515625 -12.992188 14.078125 -13.484375 C 13.640625 -13.972656 13.132812 -14.332031 12.5625 -14.5625 C 11.988281 -14.800781 11.390625 -14.921875 10.765625 -14.921875 Z M 10.765625 -14.921875 "/></g></g></g><g fill="#ffffff" fill-opacity="1"><g transform="translate(268.364289, 254.36928)"><g><path d="M 6.078125 0 L 3.0625 0 C 2.59375 0 2.359375 -0.234375 2.359375 -0.703125 L 2.34375 -17.5 C 2.34375 -17.96875 2.578125 -18.203125 3.046875 -18.203125 L 4.953125 -18.203125 C 5.359375 -18.203125 5.613281 -17.992188 5.71875 -17.578125 L 6.203125 -15.65625 C 6.847656 -16.707031 7.609375 -17.457031 8.484375 -17.90625 C 9.367188 -18.351562 10.269531 -18.578125 11.1875 -18.578125 C 11.695312 -18.578125 12.242188 -18.5 12.828125 -18.34375 C 13.242188 -18.21875 13.394531 -17.929688 13.28125 -17.484375 L 12.59375 -14.84375 C 12.488281 -14.425781 12.203125 -14.269531 11.734375 -14.375 C 11.472656 -14.425781 11.222656 -14.46875 10.984375 -14.5 C 10.753906 -14.53125 10.546875 -14.546875 10.359375 -14.546875 C 9.210938 -14.546875 8.332031 -14.144531 7.71875 -13.34375 C 7.101562 -12.550781 6.796875 -11.375 6.796875 -9.8125 L 6.796875 -0.703125 C 6.796875 -0.234375 6.554688 0 6.078125 0 Z M 6.078125 0 "/></g></g></g><g fill="#ffffff" fill-opacity="1"><g transform="translate(282.618133, 254.36928)"><g><path d="M 10.671875 -18.578125 C 11.960938 -18.578125 13.148438 -18.351562 14.234375 -17.90625 C 15.328125 -17.46875 16.269531 -16.835938 17.0625 -16.015625 C 17.863281 -15.191406 18.484375 -14.207031 18.921875 -13.0625 C 19.367188 -11.925781 19.59375 -10.660156 19.59375 -9.265625 C 19.59375 -8.953125 19.53125 -8.738281 19.40625 -8.625 C 19.28125 -8.519531 19.09375 -8.46875 18.84375 -8.46875 L 5.890625 -8.46875 C 5.941406 -7.414062 6.203125 -6.519531 6.671875 -5.78125 C 7.148438 -5.039062 7.765625 -4.476562 8.515625 -4.09375 C 9.273438 -3.71875 10.097656 -3.53125 10.984375 -3.53125 C 11.828125 -3.53125 12.664062 -3.707031 13.5 -4.0625 C 14.34375 -4.425781 15.101562 -4.957031 15.78125 -5.65625 C 16.070312 -5.9375 16.375 -5.957031 16.6875 -5.71875 L 18.375 -3.875 C 18.726562 -3.59375 18.722656 -3.269531 18.359375 -2.90625 C 17.347656 -1.84375 16.191406 -1.023438 14.890625 -0.453125 C 13.585938 0.109375 12.242188 0.390625 10.859375 0.390625 C 9.585938 0.390625 8.390625 0.171875 7.265625 -0.265625 C 6.148438 -0.703125 5.164062 -1.332031 4.3125 -2.15625 C 3.457031 -2.988281 2.785156 -3.988281 2.296875 -5.15625 C 1.804688 -6.320312 1.5625 -7.632812 1.5625 -9.09375 C 1.5625 -10.539062 1.789062 -11.84375 2.25 -13 C 2.707031 -14.164062 3.347656 -15.160156 4.171875 -15.984375 C 5.003906 -16.816406 5.972656 -17.457031 7.078125 -17.90625 C 8.179688 -18.351562 9.378906 -18.578125 10.671875 -18.578125 Z M 10.765625 -14.921875 C 10.148438 -14.921875 9.535156 -14.804688 8.921875 -14.578125 C 8.304688 -14.347656 7.753906 -13.984375 7.265625 -13.484375 C 6.773438 -12.992188 6.421875 -12.359375 6.203125 -11.578125 L 14.984375 -11.578125 C 14.816406 -12.359375 14.515625 -12.992188 14.078125 -13.484375 C 13.640625 -13.972656 13.132812 -14.332031 12.5625 -14.5625 C 11.988281 -14.800781 11.390625 -14.921875 10.765625 -14.921875 Z M 10.765625 -14.921875 "/></g></g></g><g fill="#ffffff" fill-opacity="1"><g transform="translate(303.885077, 254.36928)"><g><path d="M 7.734375 0.390625 C 6.046875 0.390625 4.210938 0.0976562 2.234375 -0.484375 C 1.972656 -0.566406 1.8125 -0.679688 1.75 -0.828125 C 1.6875 -0.984375 1.691406 -1.160156 1.765625 -1.359375 L 2.59375 -3.703125 C 2.738281 -4.109375 3.035156 -4.234375 3.484375 -4.078125 C 4.253906 -3.785156 5.007812 -3.554688 5.75 -3.390625 C 6.5 -3.234375 7.175781 -3.15625 7.78125 -3.15625 C 8.457031 -3.15625 9.019531 -3.28125 9.46875 -3.53125 C 9.914062 -3.789062 10.140625 -4.238281 10.140625 -4.875 C 10.140625 -5.15625 10.019531 -5.414062 9.78125 -5.65625 C 9.539062 -5.894531 9.21875 -6.128906 8.8125 -6.359375 C 8.414062 -6.585938 7.960938 -6.820312 7.453125 -7.0625 C 6.953125 -7.300781 6.445312 -7.5625 5.9375 -7.84375 C 5.40625 -8.113281 4.890625 -8.410156 4.390625 -8.734375 C 3.890625 -9.066406 3.4375 -9.4375 3.03125 -9.84375 C 2.625 -10.257812 2.300781 -10.726562 2.0625 -11.25 C 1.820312 -11.769531 1.703125 -12.367188 1.703125 -13.046875 C 1.703125 -13.992188 1.878906 -14.816406 2.234375 -15.515625 C 2.585938 -16.210938 3.066406 -16.785156 3.671875 -17.234375 C 4.285156 -17.691406 4.976562 -18.03125 5.75 -18.25 C 6.53125 -18.46875 7.34375 -18.578125 8.1875 -18.578125 C 8.894531 -18.578125 9.675781 -18.507812 10.53125 -18.375 C 11.382812 -18.238281 12.238281 -18.03125 13.09375 -17.75 C 13.300781 -17.695312 13.445312 -17.59375 13.53125 -17.4375 C 13.625 -17.289062 13.625 -17.101562 13.53125 -16.875 L 12.8125 -14.578125 C 12.664062 -14.128906 12.363281 -13.984375 11.90625 -14.140625 C 11.25 -14.378906 10.59375 -14.570312 9.9375 -14.71875 C 9.289062 -14.863281 8.707031 -14.9375 8.1875 -14.9375 C 7.5625 -14.9375 7.054688 -14.820312 6.671875 -14.59375 C 6.296875 -14.363281 6.109375 -14.007812 6.109375 -13.53125 C 6.109375 -13.125 6.296875 -12.769531 6.671875 -12.46875 C 7.046875 -12.175781 7.535156 -11.890625 8.140625 -11.609375 C 8.753906 -11.335938 9.398438 -11.035156 10.078125 -10.703125 C 10.617188 -10.441406 11.160156 -10.144531 11.703125 -9.8125 C 12.253906 -9.488281 12.75 -9.113281 13.1875 -8.6875 C 13.632812 -8.257812 13.988281 -7.765625 14.25 -7.203125 C 14.507812 -6.640625 14.640625 -5.988281 14.640625 -5.25 C 14.640625 -4.1875 14.441406 -3.296875 14.046875 -2.578125 C 13.660156 -1.859375 13.140625 -1.28125 12.484375 -0.84375 C 11.828125 -0.40625 11.085938 -0.09375 10.265625 0.09375 C 9.453125 0.289062 8.609375 0.390625 7.734375 0.390625 Z M 7.734375 0.390625 "/></g></g></g></svg>